<svg viewBox="0 0 120 120" xmlns="http://www.w3.org/2000/svg">
  <!-- Corpo -->
  <ellipse cx="52" cy="68" rx="26" ry="34" fill="#fde047"/>
  <!-- Camisa -->
  <rect x="30" y="80" width="44" height="22" rx="6" fill="#1d4ed8"/>
  <rect x="30" y="80" width="44" height="6" fill="#1e3a8a"/>
  <!-- Pés -->
  <rect x="26" y="96" width="14" height="10" rx="3" fill="#1f2937"/>
  <rect x="64" y="96" width="14" height="10" rx="3" fill="#1f2937"/>
  <!-- Cabeça -->
  <circle cx="52" cy="36" r="18" fill="#fde047" stroke="#a16207" stroke-width="1.5"/>
  <!-- Olho esquerdo -->
  <circle cx="44" cy="33" r="5" fill="#ffffff" stroke="#374151" stroke-width="1"/>
  <circle cx="45" cy="33" r="2.5" fill="#1f2937"/>
  <!-- Olho direito -->
  <circle cx="60" cy="33" r="5" fill="#ffffff" stroke="#374151" stroke-width="1"/>
  <circle cx="61" cy="33" r="2.5" fill="#1f2937"/>
  <!-- Sobrancelhas -->
  <path d="M41 27 Q44 25 47 27" stroke="#a16207" stroke-width="1.5" fill="none" stroke-linecap="round"/>
  <path d="M57 27 Q60 25 63 27" stroke="#a16207" stroke-width="1.5" fill="none" stroke-linecap="round"/>
  <!-- Sorriso -->
  <path d="M44 43 Q52 50 60 43" stroke="#a16207" stroke-width="2" fill="none" stroke-linecap="round"/>
  <!-- Braço direito (segurando banana) -->
  <path d="M78 72 Q90 68 88 78" stroke="#fde047" stroke-width="7" fill="none" stroke-linecap="round"/>
  <!-- Braço esquerdo -->
  <path d="M26 72 Q18 66 20 78" stroke="#fde047" stroke-width="7" fill="none" stroke-linecap="round"/>
  <!-- Banana -->
  <path d="M86 62 Q102 55 108 68 Q102 72 90 72 Q84 66 86 62Z" fill="#fde047" stroke="#a16207" stroke-width="1.5"/>
  <path d="M86 62 Q96 58 106 67" stroke="#a16207" stroke-width="1" fill="none"/>
</svg>
